<?xml version="1.0" encoding="UTF-8" standalone="no"?>
<svg
   xmlns:dc="http://purl.org/dc/elements/1.1/"
   xmlns:cc="http://creativecommons.org/ns#"
   xmlns:rdf="http://www.w3.org/1999/02/22-rdf-syntax-ns#"
   xmlns:svg="http://www.w3.org/2000/svg"
   xmlns="http://www.w3.org/2000/svg"
   xml:space="preserve"
   viewBox="0 0 485.6 265.8"
   height="265.8px"
   width="485.6px"
   y="0px"
   x="0px"
   id="Capa_1"
   version="1.0">
<path
   id="path2"
   d="M 82.900391 0 C 70.200391 4.7369516e-15 54.3 10.299609 47.5 23.099609 L 0 113.09961 L 112.30078 113.09961 L 65.199219 201.19922 L 153.40039 201.19922 L 200.54688 113.19922 L 261.5 113.19922 C 270.5 113.19922 281.7 105.90039 286.5 96.900391 L 315.79102 40.800781 L 347.19922 40.800781 C 351.99922 40.800781 357.9 36.999219 360.5 32.199219 L 377.59961 0.30078125 L 345.59961 0.30078125 C 340.79961 0.30078125 334.90078 4.1003906 332.30078 8.9003906 L 315.41406 40.400391 L 254.90039 40.400391 C 245.90039 40.400391 234.70039 47.699219 229.90039 56.699219 L 200.45312 113.09961 L 112.40039 113.09961 L 172.19922 0 L 82.900391 0 z M 153.40039 201.19922 L 118.80078 265.80078 L 168.69922 265.80078 C 175.29922 265.80078 183.59961 260.40078 187.09961 253.80078 L 215.30078 201.19922 L 153.40039 201.19922 z "
   style="clip-rule:evenodd;fill-rule:evenodd" />
<path
   id="path37"
   d="M 236.41797 113.98633 C 232.38591 113.98633 228.76176 114.27899 226.9043 114.5293 C 224.91092 114.82132 224.13977 115.27877 223.77734 117.28125 L 218.56836 144.56641 L 218.56836 144.69141 C 218.56836 145.10859 218.88485 145.40039 219.33789 145.40039 L 226.67773 145.40039 C 227.17608 145.40039 227.67501 145.0253 227.76562 144.56641 L 229.71289 134.30273 C 230.70958 134.38623 231.66151 134.38672 232.6582 134.38672 L 236.46289 144.56641 C 236.5988 144.98359 236.68915 145.40039 237.1875 145.40039 L 245.16211 145.40039 C 245.70576 145.40039 246.06836 145.06632 246.06836 144.60742 C 246.06836 144.52392 246.06874 144.39789 246.02344 144.31445 L 241.62891 132.96875 C 246.70295 131.13315 249.05859 126.91868 249.05859 122.12109 C 249.05859 116.36398 243.62129 113.98633 236.41797 113.98633 z M 269.26367 114.02734 C 264.9598 114.02734 261.38013 114.8621 259.61328 118.99219 L 248.65039 144.52344 C 248.60509 144.6486 248.55859 144.77398 248.55859 144.85742 C 248.55859 145.19116 248.78563 145.40039 249.19336 145.40039 L 257.21094 145.40039 C 257.66398 145.40039 258.0727 145.0246 258.25391 144.60742 L 260.6543 138.80859 L 268.71875 138.80859 L 268.85547 144.60742 C 268.85547 145.0246 269.17197 145.40039 269.625 145.40039 L 277.32617 145.40039 C 277.82451 145.40039 278.1875 145.0253 278.1875 144.56641 L 278.1875 144.52344 L 277.00977 118.99219 C 276.82855 114.8621 273.56754 114.02734 269.26367 114.02734 z M 288.7168 114.4043 C 288.21845 114.4043 287.67458 114.77939 287.58398 115.23828 L 283.55273 136.42969 C 283.41682 137.22233 283.32617 137.93212 283.32617 138.59961 C 283.32617 144.23156 288.35332 145.77539 293.47266 145.77539 C 295.87377 145.77539 298.90931 145.56741 300.63086 145.27539 C 301.21981 145.19189 301.58322 144.94202 301.67383 144.44141 L 302.66992 139.35156 L 302.66992 139.22656 C 302.66992 138.80938 302.35343 138.51563 301.90039 138.51562 L 294.56055 138.51562 C 293.24674 138.51562 292.70313 138.18218 292.70312 137.22266 C 292.70312 136.97235 292.74952 136.72172 292.79492 136.42969 L 296.82617 115.23828 L 296.82617 115.07031 C 296.82617 114.69484 296.5546 114.4043 296.10156 114.4043 L 288.7168 114.4043 z M 312.3418 114.4043 C 311.84347 114.4043 311.29959 114.77939 311.20898 115.23828 L 307.17773 136.42969 C 307.04181 137.22233 306.95117 137.93212 306.95117 138.59961 C 306.95117 144.23156 311.98026 145.77539 317.09961 145.77539 C 319.50071 145.77539 322.53432 145.56741 324.25586 145.27539 C 324.84482 145.19189 325.20822 144.94202 325.29883 144.44141 L 326.29492 139.35156 L 326.29492 139.22656 C 326.29492 138.80938 325.97843 138.51563 325.52539 138.51562 L 318.18555 138.51562 C 316.87175 138.51562 316.32812 138.18218 316.32812 137.22266 C 316.32812 136.97235 316.37462 136.72172 316.41992 136.42969 L 320.45117 115.23828 L 320.45117 115.07031 C 320.45117 114.69484 320.1796 114.4043 319.72656 114.4043 L 312.3418 114.4043 z M 333.61133 114.4043 C 333.15829 114.4043 332.8418 114.73656 332.8418 115.07031 C 332.8418 115.15381 332.88672 115.19586 332.88672 115.2793 L 336.7832 129.67188 C 337.32685 131.71606 338.18771 132.80086 339.32031 133.25977 L 337.18945 144.56641 L 337.18945 144.73242 C 337.18945 145.10789 337.41611 145.40039 337.86914 145.40039 L 345.25391 145.40039 C 345.75226 145.40039 346.25119 145.0253 346.3418 144.56641 L 348.4707 133.25977 C 349.78451 132.80086 351.00807 131.71607 352.36719 129.67188 L 361.79102 115.2793 C 361.88172 115.11242 361.92578 114.94548 361.92578 114.82031 C 361.92578 114.57001 361.79016 114.4043 361.42773 114.4043 L 353.04688 114.4043 C 352.59384 114.4043 352.23043 114.77813 352.00391 115.19531 L 345.52539 126.25195 C 345.34417 126.58569 345.11833 126.66797 344.98242 126.66797 C 344.84651 126.66797 344.70975 126.58563 344.61914 126.25195 L 342.40039 115.19531 C 342.30979 114.77813 342.08389 114.4043 341.63086 114.4043 L 333.61133 114.4043 z M 268.08398 120.95312 C 268.49172 120.95312 268.49219 121.16166 268.49219 121.53711 L 268.67383 132.13281 L 263.23633 132.13281 L 267.49609 121.53711 C 267.63199 121.16166 267.67625 120.95312 268.08398 120.95312 z M 235.73828 121.11914 C 238.59243 121.11914 239.77148 121.78846 239.77148 123.33203 C 239.77148 126.62776 237.82314 127.87891 234.24414 127.87891 L 232.52148 127.87891 C 231.97783 127.87891 231.43389 127.87764 230.93555 127.83594 L 232.20508 121.20312 C 232.97525 121.16142 234.51507 121.11914 235.73828 121.11914 z M 264.04297 166.17578 C 259.7391 166.17578 256.15943 167.01051 254.39258 171.14062 L 243.42969 196.67188 C 243.38439 196.79702 243.33789 196.92243 243.33789 197.00586 C 243.33789 197.33961 243.56494 197.54687 243.97266 197.54688 L 251.99219 197.54688 C 252.44523 197.54688 252.85199 197.17305 253.0332 196.75586 L 255.43359 190.95703 L 263.49805 190.95703 L 263.63477 196.75586 C 263.63477 197.17305 263.95126 197.54688 264.4043 197.54688 L 272.10547 197.54688 C 272.60381 197.54688 272.9668 197.17179 272.9668 196.71289 L 272.9668 196.67188 L 271.78906 171.14062 C 271.60784 167.01051 268.34684 166.17578 264.04297 166.17578 z M 357.83594 166.17578 C 353.53207 166.17578 349.9524 167.01051 348.18555 171.14062 L 337.22266 196.67188 C 337.17736 196.79702 337.13086 196.92243 337.13086 197.00586 C 337.13086 197.33961 337.35788 197.54687 337.76562 197.54688 L 345.78516 197.54688 C 346.2382 197.54688 346.64495 197.17305 346.82617 196.75586 L 349.22852 190.95703 L 357.29102 190.95703 L 357.42773 196.75586 C 357.42773 197.17305 357.74423 197.54688 358.19727 197.54688 L 365.90039 197.54688 C 366.39873 197.54688 366.75977 197.17179 366.75977 196.71289 L 366.75977 196.67188 L 365.58203 171.14062 C 365.40081 167.01051 362.13982 166.17578 357.83594 166.17578 z M 438.08984 166.17578 C 433.78597 166.17578 430.20826 167.01051 428.44141 171.14062 L 417.47656 196.67188 C 417.43126 196.79702 417.38672 196.92243 417.38672 197.00586 C 417.38672 197.33961 417.61376 197.54687 418.02148 197.54688 L 426.03906 197.54688 C 426.4921 197.54688 426.90081 197.17305 427.08203 196.75586 L 429.48242 190.95703 L 437.54688 190.95703 L 437.68359 196.75586 C 437.68359 197.17305 438.00009 197.54688 438.45312 197.54688 L 446.1543 197.54688 C 446.65265 197.54688 447.01562 197.17179 447.01562 196.71289 L 447.01562 196.67188 L 445.83789 171.14062 C 445.65668 167.01051 442.39371 166.17578 438.08984 166.17578 z M 223.41602 166.55078 C 222.91767 166.55078 222.46366 166.88485 222.37305 167.34375 L 221.33203 172.68359 L 221.33203 172.80859 C 221.33203 173.22578 221.64852 173.47656 222.10156 173.47656 L 228.98828 173.47656 L 224.54883 196.71289 L 224.54883 196.88086 C 224.54883 197.25632 224.82041 197.54687 225.27344 197.54688 L 232.6582 197.54688 C 233.15654 197.54688 233.65549 197.17178 233.74609 196.71289 L 238.18555 173.47656 L 244.93555 173.47656 C 245.43389 173.47656 245.93283 173.14249 246.02344 172.68359 L 247.06445 167.34375 L 247.06445 167.21875 C 247.06445 166.84328 246.70304 166.55078 246.25 166.55078 L 223.41602 166.55078 z M 284.2207 166.55078 C 283.31462 166.55078 282.40777 167.26134 282.22656 168.0957 L 276.79102 196.71289 L 276.79102 196.83789 C 276.79102 197.25507 277.10751 197.54686 277.56055 197.54688 L 284.35742 197.54688 C 284.85576 197.54688 285.35275 197.17179 285.44336 196.71289 L 288.16211 182.48828 C 288.20741 182.19625 288.29767 182.11133 288.43359 182.11133 C 288.5695 182.11133 288.70589 182.15333 288.8418 182.44531 L 295.54688 196.42188 C 295.90929 197.21451 296.40719 197.54686 297.22266 197.54688 L 302.83984 197.54688 C 303.74592 197.54688 304.65278 196.83827 304.83398 196.00391 L 310.27148 167.38477 L 310.27148 167.21875 C 310.27148 166.84328 309.99796 166.55078 309.54492 166.55078 L 302.75 166.55078 C 302.25166 166.55078 301.75271 166.92587 301.66211 167.38477 L 298.85352 182.1543 C 298.80822 182.48805 298.67302 182.5293 298.53711 182.5293 C 298.4012 182.5293 298.35467 182.4463 298.21875 182.1543 L 291.33398 167.76172 C 290.97156 167.05251 290.60881 166.55078 289.74805 166.55078 L 284.2207 166.55078 z M 317.29688 166.55078 C 316.79852 166.55078 316.34647 166.88485 316.25586 167.34375 L 315.16797 173.01758 L 315.16797 173.18359 C 315.16797 173.55905 315.43954 173.85156 315.89258 173.85156 L 325.58789 173.85156 C 325.90502 173.85156 326.04102 173.93475 326.04102 174.10156 C 326.04102 174.22671 325.95066 174.43593 325.76953 174.64453 L 312.22266 190.03906 C 311.4525 190.91515 311.13591 191.45626 311 192.08203 L 310.18359 196.46289 C 310.18359 196.54639 310.13867 196.67243 310.13867 196.75586 C 310.13867 197.25648 310.45521 197.54688 311.13477 197.54688 L 332.70117 197.54688 C 333.19952 197.54688 333.6965 197.17178 333.78711 196.71289 L 334.875 191.03906 L 334.875 190.91406 C 334.875 190.49687 334.55851 190.24805 334.10547 190.24805 L 323.86523 190.24805 C 323.5028 190.24805 323.36719 190.1636 323.36719 189.95508 C 323.36719 189.82992 323.45745 189.66367 323.63867 189.45508 L 335.96289 175.52148 C 337.54852 173.7276 337.90939 172.93351 338 172.47461 L 338.99805 167.21875 L 338.99805 167.05273 C 338.99805 166.63554 338.67998 166.55078 338.18164 166.55078 L 317.29688 166.55078 z M 378.01367 166.55078 C 377.1076 166.55078 376.2027 167.26134 376.02148 168.0957 L 370.58398 196.71289 L 370.58398 196.83789 C 370.58398 197.25507 370.90048 197.54688 371.35352 197.54688 L 378.15039 197.54688 C 378.64873 197.54688 379.14573 197.17178 379.23633 196.71289 L 381.95508 182.48828 C 382.00038 182.19625 382.09065 182.11133 382.22656 182.11133 C 382.36247 182.11133 382.49886 182.15326 382.63477 182.44531 L 389.33984 196.42188 C 389.70227 197.21452 390.20015 197.54688 391.01562 197.54688 L 396.63477 197.54688 C 397.54085 197.54688 398.44574 196.83827 398.62695 196.00391 L 404.06445 167.38477 L 404.06445 167.21875 C 404.06445 166.84328 403.79287 166.55078 403.33984 166.55078 L 396.54297 166.55078 C 396.04464 166.55078 395.54764 166.92587 395.45703 167.38477 L 392.64648 182.1543 C 392.60118 182.48805 392.46599 182.5293 392.33008 182.5293 C 392.19417 182.5293 392.14958 182.44627 392.01367 182.1543 L 385.12695 167.76172 C 384.76452 167.05252 384.4018 166.55078 383.54102 166.55078 L 378.01367 166.55078 z M 411.04492 166.55078 C 410.54659 166.55078 410.09256 166.88485 410.00195 167.34375 L 404.38477 196.71289 L 404.38477 196.88086 C 404.38477 197.25632 404.65633 197.54687 405.10938 197.54688 L 412.53906 197.54688 C 413.03741 197.54688 413.53634 197.17178 413.62695 196.71289 L 419.24414 167.34375 L 419.24414 167.21875 C 419.24414 166.80156 418.92765 166.55078 418.47461 166.55078 L 411.04492 166.55078 z M 262.86523 173.10156 C 263.27296 173.10156 263.27148 173.31008 263.27148 173.68555 L 263.45312 184.28125 L 258.01758 184.28125 L 262.27539 173.68555 C 262.4113 173.31008 262.4575 173.10156 262.86523 173.10156 z M 356.6582 173.10156 C 357.06594 173.10156 357.06445 173.31008 357.06445 173.68555 L 357.24609 184.28125 L 351.81055 184.28125 L 356.06836 173.68555 C 356.20427 173.31008 356.25046 173.10156 356.6582 173.10156 z M 436.91211 173.10156 C 437.31983 173.10156 437.32031 173.31008 437.32031 173.68555 L 437.50195 184.28125 L 432.06445 184.28125 L 436.32422 173.68555 C 436.46013 173.31008 436.50437 173.10156 436.91211 173.10156 z "
   style="font-style:italic;font-variant:normal;font-weight:900;font-stretch:normal;font-size:43.47410202px;line-height:1.25;font-family:NeoSans;-inkscape-font-specification:'NeoSans Heavy Italic';letter-spacing:0px;word-spacing:0px;fill:#000000;fill-opacity:1;stroke:none;stroke-width:1.01892436" /></svg>